<svg width="16" height="19" viewBox="0 0 16 19" fill="none" xmlns="http://www.w3.org/2000/svg">
<path d="M4 5H10" stroke="black" stroke-linecap="round"/>
<path d="M4 7H7" stroke="black" stroke-linecap="round"/>
<path d="M4.23079 15L2.6154 15C2.18698 15 1.7761 14.8361 1.47315 14.5444C1.17021 14.2527 1.00002 13.857 1.00002 13.4444L1.00002 2.55556C1.00002 2.143 1.17021 1.74734 1.47316 1.45561C1.7761 1.16389 2.18698 0.999999 2.6154 0.999999L12.3077 1C12.7361 1 13.147 1.16389 13.45 1.45561C13.7529 1.74734 13.9231 2.143 13.9231 2.55556L13.9231 8.05983" stroke="black" stroke-width="1.5" stroke-linecap="round" stroke-linejoin="round"/>
<path d="M10.8269 18.2308C13.1316 18.2308 15 16.3624 15 14.0577C15 11.753 13.1316 9.88464 10.8269 9.88464C8.52216 9.88464 6.65381 11.753 6.65381 14.0577C6.65381 16.3624 8.52216 18.2308 10.8269 18.2308Z" stroke="black" stroke-width="1.5" stroke-linecap="round" stroke-linejoin="round"/>
<path d="M10.8269 12.3884V15.7269" stroke="black" stroke-linecap="round" stroke-linejoin="round"/>
<path d="M9.15759 14.0577H12.4961" stroke="black" stroke-linecap="round" stroke-linejoin="round"/>
</svg>
